<svg xmlns="http://www.w3.org/2000/svg" width="104" height="16" viewBox="0 0 104 16" fill="none"><path d="M104 4.3894H100.288V14.2141H96.7407V4.3894H93.0109V1.29645H104V4.3894Z" fill="white"></path><path d="M86.3452 14.2141V1.29645H89.8929V14.2141H86.3452Z" fill="white"></path><path d="M72.2548 3.64345V14.2141H70.9812V1.29645H72.0364L80.5148 12.0672V1.31464H81.7883V14.2141H80.6057L72.2548 3.64345Z" fill="white"></path><path d="M60.8694 1.29645H61.9428L67.31 14.2141H65.9637L64.2898 10.175H58.486L56.8304 14.2141H55.4658L60.8694 1.29645ZM63.9987 9.17437L61.397 2.78834L58.7589 9.17437H63.9987Z" fill="white"></path><path d="M54.3561 2.42446H49.7531V14.2141H48.4795V2.42446H43.8765V1.29645H54.3561V2.42446Z" fill="white"></path><path d="M38.8541 14.2141V1.29645H40.1277V14.2141H38.8541Z" fill="white"></path><path d="M35.0998 2.42443H30.4967V14.214H29.2232V2.42443H24.6201V1.29642H35.0998V2.42443Z" fill="white"></path><path fill-rule="evenodd" clip-rule="evenodd" d="M13.473 2.16511C16.6955 5.18774 16.8576 10.2504 13.8349 13.473C10.8122 16.6955 5.74955 16.8576 2.52701 13.8349C-0.695488 10.8123 -0.857554 5.74955 2.16508 2.52704C5.18774 -0.695497 10.2505 -0.857563 13.473 2.16511ZM11.5372 12.4146C14.0308 9.756 13.8971 5.57925 11.2385 3.08557C8.57992 0.591889 4.4032 0.725565 1.90956 3.38416C-0.584121 6.04274 -0.450445 10.2195 2.20814 12.7132C4.86673 15.2069 9.04346 15.0732 11.5372 12.4146Z" fill="#403F3F"></path><path fill-rule="evenodd" clip-rule="evenodd" d="M13.473 2.16511C16.6955 5.18774 16.8576 10.2504 13.8349 13.473C10.8122 16.6955 5.74955 16.8576 2.52701 13.8349C-0.695488 10.8123 -0.857554 5.74955 2.16508 2.52704C5.18774 -0.695497 10.2505 -0.857563 13.473 2.16511ZM11.5372 12.4146C14.0308 9.756 13.8971 5.57925 11.2385 3.08557C8.57992 0.591889 4.4032 0.725565 1.90956 3.38416C-0.584121 6.04274 -0.450445 10.2195 2.20814 12.7132C4.86673 15.2069 9.04346 15.0732 11.5372 12.4146Z" fill="url(#paint0_linear_41_8)"></path><defs><linearGradient id="paint0_linear_41_8" x1="15.7111" y1="7.99521" x2="0.34411" y2="7.99521" gradientUnits="userSpaceOnUse"><stop offset="0.169193" stop-color="#A1FF07"></stop><stop offset="0.812065" stop-color="#35FF02" stop-opacity="0.7"></stop></linearGradient></defs></svg>